Coordinates
version=1
nRows=11
nColumns=40
inDegrees=yes

Units are S.I. units (second, meters, Newtons, ...)
Angles are in degrees.

endheader
time	pelvis_tilt	pelvis_list	pelvis_rotation	pelvis_tx	pelvis_ty	pelvis_tz	hip_flexion_r	hip_adduction_r	hip_rotation_r	knee_angle_r	knee_angle_r_beta	ankle_angle_r	subtalar_angle_r	mtp_angle_r	hip_flexion_l	hip_adduction_l	hip_rotation_l	knee_angle_l	knee_angle_l_beta	ankle_angle_l	subtalar_angle_l	mtp_angle_l	lumbar_extension	lumbar_bending	lumbar_rotation	arm_flex_r	arm_add_r	arm_rot_r	elbow_flex_r	pro_sup_r	wrist_flex_r	wrist_dev_r	arm_flex_l	arm_add_l	arm_rot_l	elbow_flex_l	pro_sup_l	wrist_flex_l	wrist_dev_l
     19.77000000	     -4.73576780	     -4.54830519	      2.95872869	      1.02336444	      0.92743820	      0.42118844	     30.14825700	     -8.01795253	     -6.92786425	     74.20756008	     74.20756008	     -5.55569048	    -17.92225785	      3.08943498	     19.80106483	     -6.24138653	     -6.04950567	     25.57750089	     25.57750089	     12.70205525	    -12.00914563	      2.46446260	    -12.05687495	      4.99489997	      3.67464164	      8.07308382	    -15.33725408	    -10.96149369	     86.14159299	     45.68061548	      0.00000000	      0.00000000	      6.03669898	    -12.75452679	     -1.41934989	     56.27959578	     46.35609490	      0.00000000	      0.00000000
     19.78164286	     -4.85429460	     -4.56677935	      2.81291908	      1.02217623	      0.92792180	      0.42052583	     32.07706799	     -8.16024448	     -7.00858303	     74.47776287	     74.47776287	     -5.06094087	    -18.15065601	      3.39179027	     19.11296141	     -6.12653417	     -5.80684516	     25.08004845	     25.08004845	     12.88708532	    -12.52679421	      2.60379161	    -12.09021407	      5.06752088	      3.89639352	      6.68214709	    -15.33783900	    -11.44056441	     81.89235918	     45.81080705	      0.00000000	      0.00000000	      7.83295096	    -13.22978585	     -0.92912088	     58.30414738	     46.38961763	      0.00000000	      0.00000000
     19.79328571	     -4.93823813	     -4.58197705	      2.59841508	      1.02097993	      0.92835524	      0.42003064	     33.93141418	     -8.24184005	     -7.04652911	     74.60385741	     74.60385741	     -4.67632497	    -18.30794157	      3.78399493	     18.39890629	     -6.14393816	     -6.02058192	     24.64020314	     24.64020314	     13.18201079	    -12.45399219	      2.49893050	    -12.26148618	      5.13513501	      4.36059282	      5.23048188	    -15.69094737	    -11.62322378	     78.16584105	     45.92223682	      0.00000000	      0.00000000	      9.77945460	    -13.55154997	     -0.72546840	     60.32187813	     46.43338465	      0.00000000	      0.00000000
     19.80492857	     -4.96974038	     -4.64963632	      2.46461049	      1.01990297	      0.92880913	      0.41968950	     35.56010660	     -8.19564277	     -7.13441571	     74.46520129	     74.46520129	     -3.99506031	    -18.43588580	      4.79021278	     17.65323221	     -6.20438616	     -6.10072013	     24.20051196	     24.20051196	     13.44065600	    -12.36685421	      2.26439008	    -12.38473500	      5.23577467	      4.30269728	      4.77213483	    -15.36451723	    -12.08063593	     72.59707737	     46.09847519	      0.00000000	      0.00000000	     11.30698317	    -14.41595394	      0.06044461	     62.68454020	     46.45009121	      0.00000000	      0.00000000
     19.81657143	     -5.01655180	     -4.68267710	      2.23083789	      1.01887562	      0.92923781	      0.41955766	     37.13798503	     -8.16110633	     -7.21724130	     74.04234812	     74.04234812	     -3.70443972	    -18.43974361	      5.57268967	     16.88213658	     -6.26980976	     -6.37241919	     23.71820951	     23.71820951	     13.68672736	    -12.27398244	      2.08843729	    -12.56549403	      5.24991136	      4.57536849	      3.94772087	    -15.53177357	    -12.19534233	     68.08408077	     46.23197925	      0.00000000	      0.00000000	     12.96721359	    -14.86039952	      0.36570614	     64.89703673	     46.49566736	      0.00000000	      0.00000000
     19.82821429	     -5.09467480	     -4.76483077	      2.10231423	      1.01792956	      0.92957181	      0.41955891	     38.54137097	     -7.99820512	     -7.33244381	     73.22496467	     73.22496467	     -3.12908112	    -18.38924679	      6.52498023	     16.17241542	     -6.37741866	     -6.54600236	     23.23797475	     23.23797475	     13.87223014	    -12.06147029	      1.73261993	    -12.66767234	      5.32494825	      4.28314483	      4.12773961	    -15.20032886	    -12.37312794	     61.82060784	     46.41820395	      0.00000000	      0.00000000	     14.23663939	    -15.90320806	      0.92809207	     67.36379315	     46.54181250	      0.00000000	      0.00000000
     19.83985714	     -5.18867869	     -4.81742762	      1.93519186	      1.01705180	      0.92989009	      0.41975216	     39.79267342	     -7.83920798	     -7.48382932	     71.98926996	     71.98926996	     -2.70576074	    -18.27682179	      7.25718145	     15.41781722	     -6.45439051	     -6.73754219	     22.63523548	     22.63523548	     13.93556317	    -11.92500222	      1.26899544	    -12.70187614	      5.37024863	      3.36418638	      5.04960060	    -14.89826957	    -11.70354237	     55.05656448	     46.51385101	      0.00000000	      0.00000000	     14.61367907	    -16.88053782	      0.00662330	     70.52402993	     46.79295164	      0.00000000	      0.00000000
     19.85150000	     -5.24857863	     -4.87283258	      1.74016332	      1.01634330	      0.93014361	      0.42011909	     40.78922019	     -7.63567000	     -7.65708003	     70.26151714	     70.26151714	     -2.57254708	    -18.15160174	      6.97018062	     14.63841787	     -6.58428934	     -7.07136198	     22.12014593	     22.12014593	     14.19319433	    -11.56291081	      0.92680406	    -12.84382312	      5.43685288	      3.48408301	      4.70249820	    -14.97502047	    -11.68417185	     49.99246032	     46.63142403	      0.00000000	      0.00000000	     16.06254942	    -17.52825381	      0.37449603	     72.65958549	     46.87552330	      0.00000000	      0.00000000
     19.86314286	     -5.29799000	     -4.90048913	      1.52959891	      1.01579988	      0.93036310	      0.42062810	     41.56927886	     -7.40824699	     -7.82870981	     68.08451391	     68.08451391	     -2.37138204	    -17.90697414	      6.79361859	     13.77916149	     -6.66048376	     -7.36453699	     21.50102200	     21.50102200	     14.47164070	    -11.29216769	      0.78840769	    -13.04720252	      5.49444298	      4.11334128	      3.32390806	    -15.33364422	    -11.64569346	     47.03713332	     46.71107533	      0.00000000	      0.00000000	     17.70582753	    -17.53181023	      0.20757591	     74.78173739	     46.95279296	      0.00000000	      0.00000000
     19.87478571	     -5.42983138	     -4.94033257	      1.36828283	      1.01530563	      0.93044770	      0.42126067	     42.14202681	     -7.19491292	     -8.12110662	     65.32298302	     65.32298302	     -2.50928793	    -17.65313168	      5.46446889	     13.03944851	     -6.78719663	     -7.76899295	     20.90690846	     20.90690846	     14.54642793	    -10.85861460	      0.19138422	    -13.04209276	      5.52489292	      3.61399329	      4.14727524	    -15.04482646	    -11.88307061	     40.13185499	     46.91886715	      0.00000000	      0.00000000	     18.40610403	    -18.71305008	      0.58528000	     77.52265094	     47.04528677	      0.00000000	      0.00000000
     19.88642857	     -5.54679633	     -4.91235095	      1.19723490	      1.01504839	      0.93044785	      0.42193958	     42.43938224	     -7.01393750	     -8.41721245	     62.07925756	     62.07925756	     -2.63253600	    -17.33025432	      3.94266899	     12.18551275	     -6.79369765	     -8.06845142	     20.17477806	     20.17477806	     14.65608469	    -10.56849592	     -0.23970675	    -13.10380106	      5.52530007	      3.41824045	      4.10504276	    -14.96254505	    -12.12337144	     35.34228111	     47.02393785	      0.00000000	      0.00000000	     19.10590334	    -19.13738751	     -0.30612571	     80.31641503	     47.24904778	      0.00000000	      0.00000000
